<svg width="51" height="31" viewBox="0 0 51 31" fill="none" xmlns="http://www.w3.org/2000/svg">
<path d="M49.1921 16.9486L37.9928 16.4727C38.6382 9.43364 41.0047 8.73206 43.927 8.6273L45.0559 8.55494L45.555 0.805852L44.2588 0.810729C40.4501 0.833815 36.2144 1.24639 33.2216 4.11236C30.5982 6.62476 29.2405 10.8538 28.8178 17.4163L28.0346 29.5768L48.3232 30.439L49.1921 16.9486Z" fill="#A7C1CA"/>
<path d="M20.2939 30.3052L21.1628 16.8148L10.113 16.3453C10.7583 9.30621 13.05 8.60145 15.9723 8.49669L17.0266 8.42116L17.5257 0.672071L16.3041 0.680119C12.4954 0.703203 8.22218 1.11418 5.22939 3.98015C2.60616 6.49256 1.21122 10.72 0.788539 17.2826L0.00531811 29.443L20.2939 30.3052Z" fill="#A7C1CA"/>
</svg>
